<svg xmlns="http://www.w3.org/2000/svg" version="1.1" xmlns:xlink="http://www.w3.org/1999/xlink" xmlns:svgjs="http://svgjs.dev/svgjs" width="1000" height="126" viewBox="0 0 1000 126"><g transform="matrix(1,0,0,1,-0.5886586828722784,0.24541540385165206)"><svg viewBox="0 0 348 44" data-background-color="#ffffff" preserveAspectRatio="xMidYMid meet" height="126" width="1000" xmlns="http://www.w3.org/2000/svg" xmlns:xlink="http://www.w3.org/1999/xlink"><g id="tight-bounds" transform="matrix(1,0,0,1,0.2048532288729632,-0.08570000000000277)"><svg viewBox="0 0 347.5902834410875 44.1714" height="44.1714" width="347.5902834410875"><g><svg viewBox="0 0 347.5902834410875 44.1714" height="44.1714" width="347.5902834410875"><g><svg viewBox="0 0 347.5902834410875 44.1714" height="44.1714" width="347.5902834410875"><g id="textblocktransform"><svg viewBox="0 0 347.5902834410875 44.1714" height="44.1714" width="347.5902834410875" id="textblock"><g><svg viewBox="0 0 347.5902834410875 44.1714" height="44.1714" width="347.5902834410875"><g><svg><g></g><g></g></svg></g><g><svg><g><svg></svg></g><g></g></svg></g><g id="text-0"><svg viewBox="0 0 347.5902834410875 44.1714" height="44.1714" width="347.5902834410875"><g transform="matrix(1,0,0,1,0,0)"><svg width="302.1615" viewBox="0.05000000447034836 -26.149999618530273 186.739990234375 27.299999237060547" height="44.1714" data-palette-color="#a437db"><path d="M23.6-21.75L23.6-21.75Q22.3-13.85 22.3-8.85 22.3-3.85 22.7 0L22.7 0 11.8 0Q10.1-7.95 10.1-17.1L10.1-17.1Q10.1-18.65 10.2-21.75L10.2-21.75Q5.95-20.5 5-16L5-16 0.05-16.3 1.85-25 35.1-25Q34.1-19.5 32.8-16L32.8-16 27.75-16.3Q27.95-17.1 27.95-17.9L27.95-17.9Q27.95-19.85 26.75-20.8 25.55-21.75 23.6-21.75ZM38.8-25L52.3-25 52.3-23.65Q52.3-10.45 50.65 0L50.65 0 38.65 0Q39.6-4.6 39.6-10.63 39.6-16.65 38.8-25L38.8-25ZM77.5-21.95L77.5-21.95Q75.75-22.25 74.12-22.25 72.5-22.25 70.2-21.7L70.2-21.7Q69.45-18.55 69.45-15.55L69.45-15.55Q69.45-7.8 76.34-3.65L76.34-3.65Q80.95-6.7 84.65-11.25L84.65-11.25Q84.8-9.25 84.9-5.15L84.9-5.15Q81.2-2.25 77.34-0.6 73.5 1.05 67.75 1.05L67.75 1.05 66.59 1.05Q62.09-0.9 59.52-4.7 56.95-8.5 56.95-12.7L56.95-12.7Q56.95-18.3 61.55-22.23 66.15-26.15 74.9-26.15L74.9-26.15Q79.8-26.15 85.15-24.9L85.15-24.9Q84.34-21.75 83.15-18.95L83.15-18.95Q80-18.65 76.65-18.65L76.65-18.65Q77.15-20.05 77.5-21.95ZM92.79-0.15L92.79-0.15Q88.34-5.85 88.34-11.85 88.34-17.85 93.34-22 98.34-26.15 106.14-26.15L106.14-26.15Q110.29-26.15 114.39-24.9L114.39-24.9Q117.99-20.35 117.99-15.15L117.99-15.15Q117.99-8.6 112.64-3.75 107.29 1.1 99.69 1.1L99.69 1.1Q96.44 1.1 92.79-0.15ZM100.39-21.8L100.39-21.8Q98.64-18.8 98.64-14.75 98.64-10.7 100.42-7.28 102.19-3.85 105.29-2.35L105.29-2.35Q107.64-5.35 107.64-9.3 107.64-13.25 105.72-16.65 103.79-20.05 100.39-21.8ZM125.99-0.15L125.99-0.15Q121.54-5.85 121.54-11.83 121.54-17.8 126.54-21.98 131.54-26.15 139.34-26.15L139.34-26.15Q143.64-26.15 147.54-24.95L147.54-24.95Q151.19-20.35 151.19-15.1L151.19-15.1Q151.19-7.95 144.94-2.95L144.94-2.95Q145.49-3.05 146.94-3.45 148.39-3.85 149.32-3.85 150.24-3.85 151.29-3.5L151.29-3.5 154.89 1.15Q153.89-0.05 151.97-0.05 150.04-0.05 146.84 0.5 143.64 1.05 142.49 1.1L142.49 1.1Q141.49 0.65 140.49-0.4L140.49-0.4Q136.84 1.1 133.24 1.1 129.64 1.1 125.99-0.15ZM133.59-21.75L133.59-21.75Q131.79-18.65 131.79-14.68 131.79-10.7 133.59-7.28 135.39-3.85 138.49-2.35L138.49-2.35Q140.84-5.35 140.84-9.3 140.84-13.25 138.92-16.65 136.99-20.05 133.59-21.75ZM183.94-16.3L183.94-16.3 183.89-14.6Q179.89-12.45 173.89-11.25L173.89-11.25Q178.19-10.1 182.19-10.1L182.19-10.1 183.24-10.1Q185.99-6.05 186.79 0L186.79 0 173.84 0Q173.34-3.5 171.81-6.03 170.29-8.55 168.09-9.45L168.09-9.45Q168.04-8.6 168.04-6.05 168.04-3.5 168.34 0L168.34 0 157.44 0Q155.99-7.25 155.99-13.48 155.99-19.7 156.69-25L156.69-25 182.79-25Q183.94-19.95 183.94-16.3ZM169.14-21.65L169.14-21.65Q168.54-17.25 168.24-13L168.24-13Q170.99-13.4 172.74-14.95L172.74-14.95Q171.79-18.3 169.14-21.65Z" opacity="1" transform="matrix(1,0,0,1,0,0)" fill="#a437db" class="wordmark-text-0" data-fill-palette-color="primary"></path></svg></g><g><svg xmlns="http://www.w3.org/2000/svg" xmlns:xlink="http://www.w3.org/1999/xlink" version="1.1" x="312.5901" y="0" viewBox="-250.70001220703125 140.98709106445312 63.399993896484375 80.01290893554688" enable-background="new -269 131 100 100" xml:space="preserve" height="44.1714" width="35.0001834410875" class="icon-s-0" data-fill-palette-color="accent" id="s-0"><path d="M-200.1 163.7l-1-0.8c-1.2-1-3.1-0.6-3.8 0.8-0.3 0.7-0.6 7.7-0.6 8.9 0 0.2 0 0.6 0 0.7 0 1-0.9 1.8-1.9 1.6-0.8-0.1-1.4-0.9-1.4-1.7-0.1-12-3.7-20.4-10.5-26.7-4.1-3.8-9-7.2-10.5-4.6-0.4 0.7 0.2 2.2 0.9 4.1 1.4 4.3-2.9 11.2-9 18.1-5.7 6.5-12.8 14.5-12.8 26.4 0 16 15.1 30.5 31.7 30.5 16.6 0 31.7-14.5 31.7-30.5C-187.3 180.4-192.1 170.4-200.1 163.7zM-219 215.2c-7.2 0-13.1-5.9-13.1-13.1 0-3.6 1.4-6.8 3.8-9.2l7.2-8.6c1.1-1.3 3.2-1.3 4.3 0l7.2 8.6c2.3 2.4 3.8 5.6 3.8 9.2C-205.9 209.3-211.8 215.2-219 215.2z" fill="#8b3c7f" data-fill-palette-color="accent"></path></svg></g></svg></g></svg></g></svg></g></svg></g><g></g></svg></g><defs></defs></svg><rect width="347.5902834410875" height="44.1714" fill="none" stroke="none" visibility="hidden"></rect></g></svg></g></svg>